<svg width="500" height="500" viewBox="0 0 500 500" fill="none" xmlns="http://www.w3.org/2000/svg">
<g clip-path="url(#clip0_18_38)">
<mask id="mask0_18_38" style="mask-type:luminance" maskUnits="userSpaceOnUse" x="29" y="111" width="443" height="243">
<path d="M471.667 111H29V353.667H471.667V111Z" fill="white"/>
</mask>
<g mask="url(#mask0_18_38)">
<path d="M183.963 279.339H167.327L107.52 116.558H105.348L47.9521 279.339H31.3115V282.235H68.2074V279.339H51.3271L68.2074 231.11H124.64L142.244 279.339H125.364V282.235H183.963V279.339ZM69.4157 227.735L95.7022 153.698H96.4261L123.431 227.735H69.4157Z" fill="white"/>
<path d="M305.74 241.719C305.74 216.641 282.104 201.448 261.125 197.349V196.865C280.901 193.73 300.193 184.808 300.193 162.381C300.193 141.396 280.901 120.177 247.141 120.177H183.953V123.068H200.839V279.339H183.953V282.235H244.005C295.609 282.235 305.74 260.047 305.74 241.719ZM275.839 157.797C275.839 189.631 263.052 196.141 243.281 196.141H225.432V123.068H245.693C266.911 123.068 275.839 138.021 275.839 157.797ZM281.38 236.896C281.38 261.98 271.734 279.339 246.656 279.339H225.432V199.037H250.031C270.771 199.037 281.38 214.23 281.38 236.896Z" fill="white"/>
<path d="M468.993 279.339H452.113L394.717 183.36L434.029 123.068H450.91V120.177H413.769V123.068H430.41L392.79 180.224L358.545 123.068H375.425V120.177H314.894V123.068H331.774L378.8 201.688L327.675 279.339H310.795V282.235H348.66V279.339H331.774L380.732 204.584L425.347 279.339H408.462V282.235H468.993V279.339Z" fill="white"/>
</g>
<path d="M135.311 388.415L124.191 360.847H119.936L108.857 388.415H112.66L115.102 382.3H129.071L131.508 388.415H135.311ZM128.035 379.237H116.092L122.087 363.904L128.035 379.237Z" fill="white"/>
<path d="M158.168 374.654C158.168 383.206 164.491 388.951 172.345 388.951C176.845 388.951 180.611 387.05 183.173 384.201V374.237H170.277V377.295H179.741V382.92C178.376 384.279 175.647 385.894 172.345 385.894C166.309 385.894 161.72 381.18 161.72 374.654C161.72 368.081 166.309 363.451 172.345 363.451C175.647 363.451 178.585 365.024 180.319 367.253L183.048 365.56C180.611 362.54 177.22 360.394 172.345 360.394C164.491 360.394 158.168 366.097 158.168 374.654Z" fill="white"/>
<path d="M228.719 388.415V385.357H214.089V375.852H228.427V372.79H214.089V363.904H228.719V360.847H210.656V388.415H228.719Z" fill="white"/>
<path d="M278.891 388.415V360.847H275.464V382.628L259.589 360.847H256.078V388.415H259.51V366.18L275.583 388.415H278.891Z" fill="white"/>
<path d="M320.183 388.909C325.183 388.909 328.49 386.597 330.803 383.456L327.87 381.842C326.298 384.201 323.449 385.852 320.183 385.852C314.271 385.852 309.683 381.18 309.683 374.654C309.683 368.081 314.271 363.451 320.183 363.451C323.449 363.451 326.298 365.144 327.87 367.461L330.761 365.847C328.574 362.748 325.183 360.394 320.183 360.394C312.37 360.394 306.131 366.18 306.131 374.654C306.131 383.123 312.37 388.909 320.183 388.909Z" fill="white"/>
<path d="M367.876 388.415V376.758L378.704 360.847H374.694L366.142 373.659L357.585 360.847H353.574L364.444 376.758V388.415H367.876Z" fill="white"/>
</g>
<defs>
<clipPath id="clip0_18_38">
<rect width="500" height="500" fill="white"/>
</clipPath>
</defs>
</svg>
